<svg width="606" height="720" viewBox="0 0 606 720" fill="none" xmlns="http://www.w3.org/2000/svg">
<path d="M89.8222 43.7792C71.1133 -4.89804 -21.4446 -28.9358 -6.17064 67.9849C-3.66621 83.8766 -3.41429 111.241 -6.17064 144.549C-8.69562 175.06 -58.1253 191.756 -73.2985 231.18C-97.0946 293.01 -8.1227 336.105 -22.2813 368.608C-40.8256 411.178 -97.6071 429.648 -129.015 452.939C-158.581 474.864 -177.415 510.044 -184.646 546.212C-197.332 609.666 -174.31 676.163 -110.89 679.472C-79.1426 681.128 -37.2719 666.949 15.3102 628.627C38.8198 611.493 59.5503 597.373 77.9743 585.956C125.395 556.569 112.646 626.08 169.033 628.627C201.162 630.079 234.72 570.069 260.123 602.079C278.186 624.839 298.914 652.456 328.515 680.848C380.501 730.709 445.497 738.05 454.69 666.888C459.03 633.295 450.935 582.209 423.166 509.844C405.395 463.534 449.597 465.167 454.69 405.823C459.784 346.479 418.137 319.112 448.285 294.551L448.889 294.059C471.868 275.34 496.376 255.375 509.761 217.03C521.29 183.998 520.188 151.283 509.761 126.145C498.601 99.2414 476.758 81.0162 448.285 80.3698C419.715 79.7211 384.47 96.77 346.64 140.507C321.698 169.344 304.807 102.245 260.123 109.104C215.438 115.964 209.227 180.705 182.459 161.928C135.959 129.309 111.734 100.789 89.8222 43.7792Z" stroke="#F4F4F7" stroke-width="1.19883"/>
<path d="M180.08 309.302C177.232 301.829 163.963 303.791 163.292 311.89C162.527 321.111 167.188 333.127 166.649 342.37C165.609 360.216 159.304 365.296 146.751 374.702C142.251 378.068 139.385 383.469 138.284 389.021C136.354 398.763 139.857 408.971 149.509 409.479C154.34 409.733 160.713 407.557 168.715 401.674C172.293 399.043 175.448 396.875 178.251 395.123C190.457 386.882 201.817 393.339 205.972 397.598C208.721 401.092 211.875 405.332 216.38 409.69C224.292 417.345 236.272 416.342 235.582 407.547C234.607 395.123 213.395 348.746 235.582 340.659C245.888 336.902 245.55 328.393 243.963 324.534C242.265 320.404 238.941 317.606 234.607 317.507C230.259 317.407 223.057 324.534 219.138 326.739C204.673 334.878 191.767 339.086 180.08 309.302Z" stroke="#F4F4F7" stroke-width="1.19883"/>
<path d="M9.30522 89.1898C-4.25049 0.958328 80.3322 22.9526 97.4845 67.5772C118.484 122.133 141.7 147.702 185.325 176.644C209.859 193.629 215.763 134.515 256.678 128.09C297.593 121.665 313.225 182.554 336.116 156.323C370.931 116.538 403.302 101.28 429.452 102.242C455.431 103.005 475.349 119.865 485.411 144.62C494.808 167.77 495.584 197.811 484.625 228.033C470.322 263.956 449.667 286.316 428.689 304.598C401.29 327.342 438.926 352.462 433.938 406.49C428.949 460.517 388.278 458.882 404.087 500.67C428.944 566.116 436.023 612.212 431.824 642.46C423.271 707.013 363.779 700.092 316.035 654.626C288.656 628.694 269.261 603.608 252.27 583.272C228.902 554.307 198.082 609.101 168.523 608.018C116.853 605.965 128.127 542.904 84.6891 569.754C67.6347 580.254 48.5178 593.145 26.9072 608.722C-21.8138 643.542 -60.2297 655.521 -88.9403 653.135C-146.594 649.875 -167.452 589.127 -155.78 531.173C-149.071 498.044 -131.768 465.839 -104.661 445.739C-74.9426 423.701 -22.705 406.438 -5.73738 366.096C7.16972 336.108 -73.8774 296.419 -52.3171 239.686C-38.6025 203.337 6.28377 187.669 8.61595 159.492C11.1544 128.823 11.2422 103.7 9.30522 89.1898Z" stroke="#F4F4F7" stroke-width="1.19883"/>
<path d="M25.4754 111.288C13.6579 32.035 90.1416 51.9135 105.712 92.3385C125.77 144.256 147.943 166.79 188.629 191.963C210.893 207.1 216.482 153.808 253.567 147.839C290.653 141.869 305.002 196.349 325.81 172.809C357.559 137.108 387.009 123.689 410.7 124.962C434.147 125.837 452.111 141.277 461.062 163.802C469.413 184.886 469.862 212.155 459.489 239.468C444.405 272.513 427.947 297.174 409.176 314.814C384.565 335.664 418.136 358.455 413.259 406.989C408.382 455.523 371.302 453.89 385.127 491.02C407.035 549.333 413.086 590.29 409.035 617.095C401.133 674.826 347.234 668.349 303.8 627.428C278.685 604.041 260.65 581.568 244.757 563.722C223.457 537.897 195.419 587.294 168.474 586.582C121.598 585.032 131.379 528.627 91.9875 552.851C76.3276 562.4 58.8521 574.018 39.1722 587.987C-5.61675 619.192 -40.5216 628.933 -66.1533 625.827C-117.957 622.626 -136.619 567.828 -125.979 515.565C-119.803 485.584 -104.055 456.459 -79.4476 438.251C-51.4607 417.538 -3.84334 401.54 11.5228 363.563C23.1594 336.188 -49.8443 300.037 -30.5513 248.587C-18.3155 215.435 21.9616 200.845 24.0976 175.098C26.4145 147.168 26.842 124.368 25.4754 111.288Z" stroke="#F4F4F7" stroke-width="1.19883"/>
<path d="M40.9465 132.494C30.8492 61.9305 99.352 79.7654 113.365 116.138C132.512 165.6 153.677 185.183 191.487 206.68C211.516 220.024 216.798 172.36 250.112 166.825C283.426 161.289 296.514 209.56 315.271 188.624C344.002 156.877 370.577 145.248 391.845 146.835C412.797 147.826 428.834 161.901 436.687 182.278C444.006 201.372 444.128 225.967 434.326 250.471C418.436 280.757 406.152 307.8 389.557 324.86C367.697 343.891 397.255 364.434 392.482 407.652C387.709 450.87 354.162 449.235 366.023 481.843C385.016 533.237 390.05 569.204 386.139 592.664C378.877 643.786 330.486 637.729 291.296 601.204C268.406 580.277 251.703 560.334 236.883 544.913C217.618 522.132 192.32 566.313 167.946 565.97C125.791 564.914 134.094 514.96 98.6886 536.646C84.3989 545.278 68.5378 555.666 50.7581 568.079C9.83183 595.781 -21.6159 603.323 -44.2081 599.488C-90.2415 596.335 -106.736 547.287 -97.1111 500.523C-91.4585 473.582 -77.241 447.433 -55.0956 431.05C-28.797 411.589 14.2738 396.798 28.0621 361.05C38.4463 336.19 -26.6265 303.446 -9.57117 257.093C1.2047 227.017 36.9346 213.454 38.8778 190.043C40.9767 164.751 41.7446 144.193 40.9465 132.494Z" stroke="#F4F4F7" stroke-width="1.19883"/>
<path d="M57.109 153.699C48.7501 91.8276 109.15 107.619 121.581 139.937C139.783 186.949 159.903 203.579 194.772 221.397C212.529 232.947 217.494 190.914 246.977 185.812C276.46 180.711 288.265 222.769 304.937 204.44C330.601 176.647 354.252 166.809 373.061 168.711C391.479 169.818 405.562 182.529 412.303 200.756C418.577 217.861 418.372 239.782 409.156 261.476C392.489 289.003 384.4 318.436 370.013 334.918C350.942 352.131 376.433 370.427 371.772 408.326C367.112 446.226 337.158 444.588 347.034 472.673C363.077 517.144 367.085 548.119 363.322 568.233C356.712 612.743 313.916 607.106 279.039 574.978C258.414 556.511 243.072 539.101 229.351 526.105C212.157 506.371 189.642 545.334 167.883 545.359C130.524 544.799 137.335 501.298 105.978 520.446C93.0838 528.16 78.8652 537.318 63.0173 548.173C26.0261 572.373 -1.90869 577.713 -21.4211 573.147C-61.6022 570.041 -75.9007 526.744 -67.3077 485.482C-62.1881 461.581 -49.5267 438.407 -29.8823 423.85C-5.31815 405.64 33.1296 392.056 45.3157 358.536C54.429 336.189 -2.59715 306.853 12.19 265.598C21.4868 238.598 52.6059 226.061 54.3527 204.985C56.2299 182.333 57.3371 164.015 57.109 153.699Z" stroke="#F4F4F7" stroke-width="1.19883"/>
<path d="M73.2649 175.903C66.6435 122.861 118.939 136.573 129.787 164.766C147.042 209.22 166.113 222.86 198.036 236.961C213.521 246.691 218.17 210.381 243.821 205.725C269.472 201.069 279.993 236.822 294.58 221.139C317.174 197.363 337.901 189.337 354.249 191.55C370.135 192.77 382.262 204.088 387.891 220.126C393.12 235.203 392.588 254.401 383.962 273.236C366.522 297.943 362.624 329.698 350.443 345.564C334.162 360.92 355.587 376.927 351.04 409.424C346.492 441.921 320.133 440.284 328.025 463.782C341.12 501.232 344.101 527.147 340.486 543.87C334.53 581.668 297.33 576.464 266.767 548.805C248.409 532.84 234.431 518 221.81 507.459C206.686 490.814 186.957 524.473 167.814 524.866C135.252 524.803 140.571 487.852 113.263 504.419C101.766 511.199 89.1905 519.105 75.275 528.38C42.2216 549.022 17.8008 552.149 1.36787 546.863C-32.9608 543.811 -45.0631 506.362 -37.5027 470.694C-32.9165 449.887 -21.8117 429.74 -4.66891 417.042C18.1574 400.123 51.9804 387.777 62.5639 356.56C70.406 336.778 21.4273 310.914 33.9465 274.85C41.7642 250.987 68.2726 239.504 69.823 220.812C71.4783 200.849 72.9239 184.813 73.2649 175.903Z" stroke="#F4F4F7" stroke-width="1.19883"/>
<path d="M88.7208 197.108C83.8232 152.763 128.124 164.43 137.411 188.568C153.755 230.576 171.817 241.26 200.861 251.679C214.106 259.615 218.448 228.937 240.32 224.715C262.192 220.492 271.451 250.03 283.983 236.954C303.555 217.135 321.401 210.902 335.323 213.43C348.708 214.767 358.906 224.72 363.434 238.609C367.629 251.696 366.77 268.219 358.714 284.242C340.466 306.191 340.75 340.346 330.75 355.635C317.225 369.173 334.629 382.932 330.185 410.108C325.742 437.285 302.922 435.644 308.847 454.616C319.02 485.139 320.981 506.058 317.507 519.432C312.192 550.614 280.511 545.83 254.198 522.571C238.068 509.067 225.424 496.76 213.878 488.646C200.793 475.05 183.807 503.489 167.24 504.252C139.408 504.685 143.246 474.191 119.932 488.218C109.806 494.08 98.8483 500.756 86.8363 508.472C57.6518 525.61 36.6942 526.532 23.3067 520.512C-5.24086 517.508 -15.172 485.813 -8.62846 455.649C-4.56624 437.882 5.0052 420.712 19.6819 409.84C40.8182 394.172 70.0867 383.032 79.0896 354.04C85.6769 336.773 44.6438 314.317 54.9211 283.352C61.276 262.566 83.2287 252.109 84.5858 235.753C86.0228 218.429 87.8099 204.636 88.7208 197.108Z" stroke="#F4F4F7" stroke-width="1.19883"/>
<path d="M104.857 218.312C101.695 182.67 137.883 192.291 145.585 212.372C160.974 251.943 177.979 259.667 204.066 266.398C215.036 272.538 219.06 247.495 237.095 243.707C255.131 239.918 263.103 263.234 273.546 252.768C290.044 236.909 304.962 232.47 316.421 235.316C327.27 236.77 335.512 245.358 338.927 257.097C342.077 268.194 340.893 282.041 333.429 295.252C314.423 314.443 318.887 351.016 311.095 365.733C300.361 377.452 313.698 388.962 309.37 410.814C305.042 432.665 285.822 431.02 289.764 445.46C296.99 469.05 297.926 484.968 294.602 494.99C289.942 519.549 263.863 515.184 241.872 496.328C228.012 485.287 216.737 475.515 206.296 469.833C195.284 459.288 181.087 482.503 167.141 483.636C144.111 484.568 146.459 460.536 127.199 472.022C118.473 476.967 109.161 482.411 99.0847 488.568C73.8468 502.198 56.4079 500.909 46.1008 494.152C23.4095 491.193 15.6754 465.256 21.1848 440.6C24.7123 425.876 32.7249 411.684 44.8968 402.639C64.2861 388.218 88.9226 378.285 96.3211 351.512C101.636 336.76 68.6568 317.714 76.6652 291.85C81.5407 274.142 98.88 264.71 100.04 250.69C101.255 236.006 103.379 224.456 104.857 218.312Z" stroke="#F4F4F7" stroke-width="1.19883"/>
<path d="M120.541 239.514C119.101 212.587 147.372 220.16 153.531 236.18C168.054 273.326 184.101 278.085 207.38 281.119C216.135 285.459 219.863 266.059 234.16 262.703C248.457 259.347 255.186 276.432 263.599 268.579C277.113 256.686 289.184 254.046 298.242 257.211C306.614 258.784 312.943 266.008 315.264 275.596C317.384 284.701 315.868 295.87 308.953 306.265C289.071 322.699 297.753 361.719 292.128 375.869C284.129 385.77 293.467 395.03 289.23 411.549C284.992 428.069 269.267 426.419 271.244 436.319C275.558 452.963 275.472 463.872 272.279 470.534C268.247 488.462 247.629 484.515 229.838 470.066C218.173 461.491 208.201 454.258 198.805 451.013C189.808 443.524 178.322 461.51 166.918 463.016C148.567 464.447 149.435 446.888 134.124 455.831L133.704 456.06C126.456 460.017 118.877 464.155 110.836 468.663C89.4035 478.78 75.3881 475.273 68.108 467.771C51.1527 464.858 45.5753 444.684 50.0807 425.541C53.0933 413.863 59.591 402.652 69.3242 395.437C87.0784 382.259 107.218 373.531 113.052 348.972C117.124 336.736 92.022 321.101 97.8033 300.342C101.225 285.713 114.042 277.304 115.012 265.621C116.011 253.579 118.485 244.273 120.541 239.514Z" stroke="#F4F4F7" stroke-width="1.19883"/>
<path d="M136.638 261.744C136.934 243.651 157.067 249.142 161.635 261.031C175.183 295.584 190.151 297.357 210.445 296.682C216.918 299.203 220.323 285.531 230.77 282.623C241.216 279.715 246.652 290.496 252.967 285.29C263.394 277.414 272.526 276.584 279.112 280.055C284.941 281.739 289.308 287.565 290.515 294.96C291.589 302.033 289.751 310.474 283.437 318.008C262.826 331.611 275.668 372.9 272.254 386.419C267.053 394.457 272.319 401.425 268.203 412.54C264.087 423.655 251.977 422.008 251.973 427.325C253.338 436.952 252.229 442.803 249.191 446.078C245.819 457.295 230.822 453.784 217.369 443.806C207.987 437.735 199.396 433.073 191.117 432.278C184.201 427.877 175.516 440.555 166.744 442.426C153.213 444.351 152.592 433.341 141.35 439.7C135.382 442.791 129.32 445.75 123.067 448.763C105.604 455.323 95.1213 449.614 90.9263 441.404C79.8405 438.548 76.4642 424.227 79.9309 410.682C82.4053 402.101 87.3378 393.921 94.557 388.566C110.542 376.692 126.029 369.207 130.254 346.973C133.05 337.308 116.022 325.153 119.531 309.592C121.471 298.107 129.665 290.759 130.437 281.464C131.213 272.117 134.019 265.097 136.638 261.744Z" stroke="#F4F4F7" stroke-width="1.19883"/>
<path d="M152.973 282.976C154.996 273.651 167.056 277.079 170.046 284.874C182.642 316.912 196.555 315.711 213.904 311.337C218.112 312.051 221.199 304.061 227.828 301.594C234.457 299.126 238.611 303.642 242.848 301.066C250.215 297.179 256.432 298.151 260.567 301.934C263.872 303.733 266.292 308.178 266.393 313.4C266.427 318.462 264.266 324.202 258.542 328.898C237.18 339.707 254.178 383.34 252.961 396.257C250.537 402.455 251.756 407.152 247.757 412.902C243.757 418.652 235.231 417.004 233.254 417.763C231.686 420.412 229.559 421.234 226.67 421.138C223.95 425.688 214.529 422.604 205.376 417.064C198.255 413.476 191.027 411.368 183.848 413.014C178.997 411.684 173.087 419.094 166.923 421.334C158.173 423.755 156.069 419.252 148.862 423.049C144.288 425.212 139.864 426.929 135.537 428.372C122.004 431.398 115.023 423.483 113.893 414.549C108.635 411.745 107.445 403.23 109.882 395.238C111.824 389.728 115.205 384.553 119.931 381.042C134.175 370.444 145.052 364.184 147.68 344.222C149.21 337.1 140.197 328.39 141.448 317.979C141.916 309.604 145.519 303.299 146.095 296.368C146.65 289.689 149.79 284.933 152.973 282.976Z" stroke="#F4F4F7" stroke-width="1.19883"/>
<circle cx="340" cy="399" r="260" fill="#ECEDF3"/>
<mask id="mask0_1306_212" style="mask-type:alpha" maskUnits="userSpaceOnUse" x="61" y="68" width="545" height="591">
<path d="M600 399C600 708 542.284 587.741 458 630.743C422.587 648.811 382.483 659 340 659C281.917 659 228.282 639.954 185 607.766C27 682.5 65.4998 441.511 65.4998 356C65.4998 212.406 175.906 68.5 319.5 68.5C592.5 68.5 620.5 258 600 399Z" fill="#ECEDF3"/>
</mask>
<g mask="url(#mask0_1306_212)">
<path d="M470.755 497.943L373.07 373.399" stroke="#EBEBEB" stroke-width="2" stroke-miterlimit="10"/>
<path d="M141.789 552.998L308.409 405.656" stroke="#EBEBEB" stroke-width="2" stroke-miterlimit="10"/>
<path d="M555.409 368.354C558.791 376.977 560.782 386.083 561.31 395.332H585.205V394.67L585.007 392.831C584.708 389.662 584.182 386.518 583.432 383.424C582.197 378.341 580.422 373.404 578.14 368.698C578.094 368.584 578.012 368.489 577.907 368.427C577.802 368.365 577.679 368.339 577.558 368.354H555.409Z" fill="#CAD2D7"/>
<path d="M556.084 428.621H578.034C578.15 428.636 578.268 428.61 578.367 428.547C578.466 428.485 578.54 428.389 578.577 428.277C581.1 423 582.932 417.419 584.028 411.672C584.563 408.897 584.921 406.091 585.099 403.271C585.117 403.173 585.139 403.075 585.166 402.98V402.318H584.808H561.68C561.257 402.318 561.283 402.318 561.244 402.755C561.098 404.673 560.966 406.592 560.794 408.51C560.494 411.551 560.022 414.573 559.378 417.56C558.578 421.207 557.534 424.796 556.256 428.304C556.163 428.383 556.137 428.489 556.084 428.621Z" fill="#CAD2D7"/>
<path d="M463.757 435.581L463.942 435.899C465.808 438.746 467.891 441.444 470.174 443.97C472.916 447.076 475.971 449.891 479.29 452.371C485.686 457.228 492.927 460.857 500.645 463.075C503.644 463.938 506.699 464.592 509.788 465.034L510.687 465.179H511.217L511.733 464.862L511.15 464.438C504.453 459.881 498.594 454.201 493.831 447.648C491.137 443.95 488.773 440.023 486.766 435.912C486.725 435.801 486.648 435.706 486.547 435.644C486.446 435.581 486.328 435.555 486.21 435.568H463.717L463.757 435.581Z" fill="#CAD2D7"/>
<path d="M485.72 395.319H516.562V368.367H492.481C492.377 368.35 492.27 368.374 492.181 368.433C492.093 368.492 492.03 368.581 492.005 368.684C489.791 373.753 488.145 379.051 487.096 384.482C486.548 387.313 486.15 390.17 485.906 393.043C485.853 393.744 485.786 394.525 485.72 395.319Z" fill="#CAD2D7"/>
<path d="M485.906 402.503C485.906 403.151 485.906 403.826 485.998 404.408C486.13 405.917 486.236 407.412 486.448 408.907C486.739 410.971 487.057 413.035 487.467 415.086C488.377 419.584 489.706 423.987 491.436 428.238C491.467 428.361 491.542 428.469 491.646 428.542C491.751 428.615 491.878 428.648 492.005 428.635H516.721V402.503H485.906Z" fill="#CAD2D7"/>
<path d="M523.508 368.526V395.517H553.622C553.622 394.829 553.622 394.194 553.49 393.493C553.331 391.984 553.212 390.476 552.974 388.981C552.604 386.692 552.22 384.403 551.651 382.14C550.648 377.597 549.194 373.164 547.311 368.909C547.276 368.804 547.205 368.713 547.111 368.653C547.018 368.593 546.906 368.567 546.795 368.579H523.508V368.526Z" fill="#CAD2D7"/>
<path d="M523.482 402.86V428.621H547.55C547.666 428.632 547.782 428.603 547.878 428.538C547.975 428.472 548.046 428.376 548.079 428.264C549.905 423.882 551.28 419.324 552.18 414.663C552.63 412.268 552.974 409.846 553.279 407.425C553.477 405.851 553.517 404.25 553.623 402.662C553.635 402.605 553.635 402.547 553.623 402.49H523.866C523.548 402.477 523.482 402.569 523.482 402.86Z" fill="#CAD2D7"/>
<path d="M453.026 395.504H478.284C478.804 386.199 480.796 377.035 484.185 368.354H460.621C460.506 368.34 460.391 368.366 460.293 368.426C460.194 368.486 460.119 368.577 460.078 368.684C457.379 374.027 455.416 379.711 454.243 385.581C453.632 388.709 453.226 391.873 453.026 395.054C453.013 395.2 453.026 395.332 453.026 395.504Z" fill="#CAD2D7"/>
<path d="M453 402.305C453 402.913 453 403.495 453.079 404.078C453.251 406.353 453.516 408.629 453.913 410.878C454.847 416.105 456.406 421.2 458.557 426.054C458.901 426.835 459.271 427.602 459.629 428.383C459.65 428.462 459.699 428.531 459.767 428.577C459.835 428.623 459.917 428.644 459.999 428.635H483.471C483.198 427.823 482.92 427.029 482.637 426.253C480.304 419.309 478.889 412.09 478.43 404.779C478.43 404.051 478.337 403.323 478.311 402.609C478.311 402.41 478.245 402.318 478.046 402.331H453V402.305Z" fill="#CAD2D7"/>
<path d="M464.445 361.487C464.449 361.517 464.449 361.549 464.445 361.579H486.871C486.982 361.59 487.093 361.566 487.189 361.508C487.284 361.451 487.358 361.365 487.401 361.262C490.342 355.392 494.029 349.926 498.369 345.001C500.93 342.163 503.747 339.568 506.784 337.247C508.293 336.083 509.867 334.998 511.402 333.887L511.653 333.688L511.349 333.476C511.349 333.344 511.442 333.198 511.495 333C502.058 334.082 492.966 337.185 484.837 342.099C476.709 347.012 469.735 353.621 464.392 361.473L464.445 361.487Z" fill="#CAD2D7"/>
<path d="M527.795 464.875C528.001 464.941 528.215 464.977 528.43 464.981C530.86 464.659 533.268 464.19 535.641 463.578C545.172 461.154 554.027 456.593 561.535 450.241C564.387 447.865 567.018 445.234 569.394 442.382C571.174 440.227 572.814 437.96 574.303 435.594L574.409 435.383H553.464C553.353 435.371 553.241 435.397 553.148 435.457C553.054 435.517 552.983 435.608 552.948 435.713C550.804 440.045 548.271 444.172 545.38 448.045C542.708 451.558 539.742 454.838 536.515 457.849C533.861 460.365 531.007 462.662 527.981 464.716L527.795 464.875Z" fill="#CAD2D7"/>
<path d="M528.06 333.675C528.999 334.363 530.111 335.143 531.183 335.964C534.772 338.754 538.11 341.853 541.159 345.225C545.278 349.729 548.792 354.75 551.611 360.163C551.797 360.494 551.955 360.851 552.154 361.182C552.191 361.235 552.238 361.28 552.292 361.314C552.347 361.348 552.408 361.371 552.471 361.381C552.842 361.381 553.212 361.381 553.596 361.381H573.707C562.501 345.503 547.457 336.043 528.298 333.132L528.43 333.384L528.06 333.675Z" fill="#CAD2D7"/>
<path d="M494.929 435.594C497.768 440.58 501.192 445.208 505.13 449.381C508.606 453.116 512.51 456.429 516.761 459.251V435.594H494.929Z" fill="#CAD2D7"/>
<path d="M523.521 435.607V458.802C532.222 452.819 539.392 444.874 544.453 435.607H523.521Z" fill="#CAD2D7"/>
<path d="M495.604 361.381H516.549V339.285C512.252 342.083 508.307 345.388 504.8 349.129C501.319 352.884 498.238 356.99 495.604 361.381Z" fill="#CAD2D7"/>
<path d="M523.508 339.973V361.566H543.62C538.704 352.889 531.815 345.492 523.508 339.973Z" fill="#CAD2D7"/>
<path d="M399.472 413.523C423.685 389.31 423.685 350.053 399.472 325.84C375.259 301.627 336.002 301.627 311.789 325.84C287.576 350.053 287.576 389.31 311.789 413.523C336.002 437.736 375.259 437.736 399.472 413.523Z" fill="#EBEBEB"/>
<path d="M428.984 654.851H293.934C292.823 650.498 291.751 646.225 290.666 642.004C289.436 637.161 288.218 632.438 287.054 627.833C286.803 626.814 286.525 625.782 286.273 624.777C285.391 621.249 284.509 617.813 283.627 614.47C283.111 612.432 282.595 610.434 282.106 608.45C281.616 606.465 281.074 604.48 280.584 602.509C280.439 601.993 280.319 601.49 280.187 600.987C280.055 600.485 279.909 599.876 279.777 599.333C279.645 598.791 279.433 598.01 279.261 597.322C279.076 596.621 278.904 595.933 278.732 595.258C278.388 593.935 278.057 592.612 277.753 591.421L276.429 585.996C276.244 585.229 276.046 584.448 275.847 583.694C275.53 582.464 275.212 581.273 274.934 580.095C274.723 579.302 274.537 578.534 274.352 577.78C273.541 574.684 272.795 571.773 272.116 569.047C271.931 568.333 271.759 567.632 271.574 566.944C271.283 565.766 270.991 564.641 270.714 563.543C270.528 562.855 270.356 562.22 270.211 561.532C269.602 559.217 269.06 557.086 268.597 555.221C268.464 554.731 268.345 554.242 268.213 553.792C267.909 552.548 267.618 551.463 267.379 550.484C267.274 550.087 267.194 549.717 267.088 549.373C266.982 549.029 266.903 548.619 266.81 548.288C266.718 547.957 266.691 547.811 266.638 547.613C266.586 547.414 266.48 546.951 266.4 546.687C266.321 546.422 266.4 546.396 266.308 546.277L265.99 545.059H397.441C397.441 545.059 401.768 559.984 408.701 584.038C410.104 588.934 411.625 594.226 413.253 599.836C417.817 615.819 423.189 634.541 428.984 654.851Z" fill="#18232F"/>
<path d="M316.043 654.851H312.669C307.685 634.158 302.834 613.429 298.115 592.665C296.995 587.62 295.879 582.57 294.768 577.515L294.45 576.086C294.45 575.835 294.781 575.729 294.847 575.981C294.913 576.232 294.94 576.298 294.992 576.444C296.514 581.868 298.036 587.32 299.517 592.758C305.242 613.372 310.751 634.07 316.043 654.851Z" fill="#263238"/>
<path d="M393.141 545.033L387.346 574.075L382.583 597.891L374.485 638.484L373.652 642.652L372.263 649.559L371.217 654.851H293.921C292.823 650.485 291.725 646.198 290.666 642.004C289.436 637.161 288.218 632.438 287.054 627.833C286.803 626.815 286.525 625.783 286.273 624.777C285.391 621.249 284.509 617.813 283.627 614.47C283.111 612.432 282.595 610.434 282.106 608.45C281.616 606.465 281.074 604.48 280.584 602.509C280.439 601.993 280.319 601.49 280.187 600.987C280.055 600.485 279.909 599.876 279.777 599.334C279.645 598.791 279.433 598.01 279.261 597.322C279.076 596.621 278.904 595.933 278.732 595.258C278.388 593.935 278.057 592.612 277.753 591.421L276.429 585.997C276.231 585.203 276.046 584.448 275.847 583.694C275.53 582.464 275.212 581.273 274.934 580.095C274.723 579.302 274.537 578.534 274.352 577.78C273.541 574.684 272.795 571.773 272.116 569.047C271.931 568.333 271.759 567.632 271.574 566.944C271.283 565.766 270.991 564.641 270.714 563.543C270.528 562.855 270.356 562.22 270.211 561.532C269.602 559.217 269.06 557.087 268.597 555.221C268.464 554.731 268.345 554.242 268.213 553.792C267.909 552.548 267.618 551.463 267.379 550.484C267.274 550.087 267.194 549.717 267.088 549.373C266.982 549.029 266.903 548.619 266.81 548.288C266.718 547.957 266.691 547.812 266.638 547.613C266.586 547.415 266.48 546.951 266.4 546.687C266.321 546.422 266.4 546.396 266.308 546.277L265.99 545.059L393.141 545.033Z" fill="#263238"/>
<path d="M393.154 544.953C393.154 545.668 392.612 553.514 391.342 565.475C390.984 568.968 390.561 572.792 390.019 576.907C389.251 583.39 388.299 590.548 387.108 598.076C385.097 611.307 382.464 625.663 379.037 639.728C377.819 644.795 376.483 649.81 375.067 654.732L201.938 654.851C201.938 654.851 199.755 641.62 200.059 637.651C201.7 616.481 214.045 545.033 214.045 545.033H367.962L393.154 544.953Z" fill="#18232F"/>
<path d="M392.797 560.54C392.612 566.613 392.36 572.673 391.963 578.719C391.553 585.335 390.958 591.805 390.098 598.354C390.08 598.594 390.049 598.833 390.005 599.069C389.211 605.199 388.294 611.308 387.253 617.394C386.274 623.083 385.56 629.209 383.046 634.462C382.093 636.476 380.742 638.276 379.076 639.755C377.55 641.158 375.677 642.13 373.652 642.573C373.32 642.649 372.984 642.707 372.646 642.745H372.408C372.47 642.78 372.52 642.833 372.553 642.896C372.586 642.959 372.6 643.031 372.593 643.102C372.593 645.14 372.593 647.204 372.355 649.228C372.35 649.312 372.35 649.396 372.355 649.479C372.156 651.252 371.826 652.999 371.495 654.772H368.597C368.597 654.772 368.597 654.692 368.597 654.666C369.113 652.747 369.537 650.816 370.013 648.884C370.489 646.952 371.177 644.981 371.64 642.97C371.674 642.897 371.724 642.834 371.786 642.784C369.938 642.874 368.107 642.396 366.539 641.414C364.971 640.433 363.741 638.995 363.014 637.294C362.048 634.647 362.485 632.001 362.881 629.355C363.411 625.888 363.927 622.409 364.456 618.942C365.448 612.551 366.732 606.24 367.87 599.889C368.028 598.923 368.2 597.957 368.372 596.992C370.648 584.078 373.03 571.151 375.888 558.357C375.994 557.827 376.113 557.298 376.232 556.756C376.351 556.213 376.88 556.504 376.854 556.848C376.761 557.708 376.682 558.582 376.576 559.428C376.073 564.333 375.486 569.228 374.816 574.115C373.996 579.844 373.427 585.613 372.62 591.315C372.342 593.274 372.077 595.219 371.786 597.177C370.463 606.611 369.14 616.031 367.486 625.425C366.732 629.792 364.006 637.611 370.291 638.961C371.729 639.284 373.236 639.097 374.551 638.431C377.343 637.108 379.381 633.867 380.386 631.062C382.172 626.06 382.808 620.556 383.734 615.343C384.757 609.601 385.665 603.845 386.459 598.076C387.491 590.879 388.55 583.681 389.688 576.497C390.243 572.831 390.826 569.18 391.408 565.515C391.686 563.821 391.963 562.128 392.228 560.434C392.255 560.077 392.797 560.183 392.797 560.54Z" fill="#263238"/>
<path d="M242.65 605.658C249.717 605.582 256.747 604.636 263.582 602.84C266.731 602.033 269.854 601.014 272.937 600.008C276.004 599.156 278.876 597.713 281.391 595.761C286.141 591.659 288.364 585.176 290.428 579.46C292.689 572.971 294.523 566.342 295.919 559.614C295.985 559.27 296.475 559.389 296.488 559.693C296.653 567.291 295.69 574.871 293.63 582.186C291.923 588.391 289.661 595.325 284.62 599.664C279.327 604.242 272.182 605.843 265.434 606.677C257.85 607.568 250.182 607.466 242.624 606.372C242.553 606.342 242.493 606.29 242.452 606.225C242.411 606.16 242.39 606.083 242.393 606.006C242.396 605.929 242.422 605.854 242.468 605.792C242.514 605.73 242.577 605.683 242.65 605.658Z" fill="#263238"/>
<path d="M230.835 559.865C230.464 569.352 220.634 618.916 219.906 628.402C219.443 634.489 221.798 654.865 221.798 654.865H219.39C219.39 654.865 217.564 636.738 217.815 628.402C218.08 618.902 229.274 569.431 230.014 559.944C230.004 559.836 230.037 559.727 230.107 559.643C230.176 559.558 230.276 559.505 230.385 559.495C230.494 559.484 230.602 559.517 230.687 559.587C230.771 559.656 230.824 559.756 230.835 559.865Z" fill="#263238"/>
<path d="M370.595 346.566C435.838 405.365 496.291 469.761 501.041 502.693C507.656 548.195 479.606 560.818 467.076 560.91C432.927 561.254 370.886 422.87 349.319 370.038C328.348 318.781 356.266 333.692 370.595 346.566Z" fill="#F7A9A0"/>
<path d="M469.061 440.705L396.528 480.2C396.528 480.2 351.423 396.844 341.037 358.275C330.65 319.707 346.157 320.778 380.294 350.813C414.43 380.848 469.061 440.705 469.061 440.705Z" fill="#C7C7C7"/>
<path d="M469.061 440.705L396.528 480.2C396.528 480.2 351.423 396.844 341.037 358.275C330.65 319.707 346.157 320.778 380.294 350.813C414.43 380.848 469.061 440.705 469.061 440.705Z" fill="#5F35F2"/>
<path opacity="0.1" d="M341.037 358.196C351.423 396.844 396.528 480.2 396.528 480.2L462.578 444.278L340.944 329.895C336.882 333.004 336.684 342.186 341.037 358.196Z" fill="black"/>
<path d="M454.137 429.591C426.166 448.512 399.055 460.817 393.631 463.992C393.366 464.138 393.154 463.714 393.432 463.569C398.91 460.777 428.68 442.254 453.912 429.168C454.203 428.983 454.441 429.406 454.137 429.591Z" fill="#263238"/>
<path d="M412.882 588.921L200.403 589.529C200.403 589.529 218.927 429.71 296.99 335.293C315.051 313.435 344.12 325.317 356.372 336.92C387.465 366.413 413.424 588.153 412.882 588.921Z" fill="#5F35F2"/>
<path d="M341.09 327.129C332.013 333.679 323.294 340.81 314.456 347.651C309.904 351.17 305.458 354.915 300.695 358.13C296.885 360.697 292.505 362.84 287.808 362.576C284.705 362.347 281.751 361.159 279.353 359.175C279.512 358.911 279.684 358.659 279.843 358.408C280.826 359.207 281.906 359.878 283.058 360.406C287.755 362.562 292.849 361.491 297.229 359.083C302.058 356.436 306.318 352.666 310.658 349.305L324.921 338.244C329.83 334.433 334.712 330.305 339.82 326.6C340.256 326.719 340.653 326.944 341.09 327.129ZM309.653 436.538C314.35 429.829 316.639 420.793 313.701 412.907C311.055 405.855 304.744 401.211 297.573 399.491C290.113 397.741 282.274 398.678 275.437 402.137C266.493 406.675 259.996 414.706 251.965 420.528C249.701 422.178 247.26 423.571 244.688 424.683C244.45 425.238 244.225 425.794 244 426.336C252.653 423.068 259.083 416.175 266.003 410.287C269.617 406.995 273.724 404.289 278.176 402.269C281.938 400.742 285.957 399.947 290.018 399.927C297.784 399.848 306.08 402.745 310.526 409.467C315.554 417.075 314.072 426.932 309.494 434.368C297.864 453.196 272.142 452.005 252.918 452.362C246.314 452.394 239.725 453.009 233.23 454.201C233.044 454.704 232.859 455.207 232.687 455.723C240.075 454.356 247.575 453.692 255.088 453.738C273.836 453.526 297.599 453.818 309.653 436.538ZM314.35 388.906C331.074 390.802 347.941 386.882 362.114 377.805C365.895 375.393 369.439 372.628 372.699 369.548L372.223 368.225C368.798 371.506 365.042 374.424 361.016 376.931C346.345 386.212 328.797 389.833 311.651 387.119C297.52 384.698 284.858 376.018 271.15 372.181L270.356 373.505C276.31 375.332 282.117 377.605 287.729 380.305C296.276 384.195 304.929 387.794 314.35 388.906ZM298.591 517.803C304.297 512.126 307.716 504.549 308.197 496.514C308.607 489.158 306.279 481.391 300.431 476.588C293.722 471.124 284.553 470.872 276.615 473.439C267.459 476.416 260.354 482.701 254.122 489.886C247.347 497.679 241.433 506.544 233.19 512.921C227.606 517.248 220.541 520.86 213.343 521.257C213.237 521.68 213.132 522.117 213.039 522.58C216.717 522.376 220.331 521.53 223.717 520.079C232.753 516.282 239.594 509.494 245.786 502.071C252.309 494.305 258.395 485.585 266.956 479.777C274.379 474.709 284.289 471.388 293.193 474.22C301.476 476.866 306.279 484.501 306.834 492.929C307.08 497.099 306.476 501.276 305.059 505.206C303.642 509.136 301.442 512.738 298.591 515.792C291.976 522.99 283.032 527.462 273.995 530.796C263.474 534.56 252.732 537.675 241.83 540.124C230.239 542.77 216.294 545.205 206.569 552.614C206.423 553.329 206.291 554.017 206.159 554.718C215.884 546.568 230.795 544.133 242.849 541.315C253.71 538.872 264.409 535.752 274.881 531.974C283.508 528.759 292.042 524.498 298.591 517.856V517.803ZM284.95 552.972C275.609 552.35 267.631 558.264 262.351 565.396C256.861 572.871 253.619 581.67 248.538 589.37H250.073C252.137 586.129 253.923 582.676 255.656 579.354C260.142 570.648 265.077 560.91 274.299 556.412C278.652 554.155 283.685 553.59 288.43 554.824C290.548 555.518 292.49 556.663 294.123 558.18C295.756 559.696 297.042 561.549 297.89 563.609C301.436 571.68 300.087 580.651 300.536 589.185H301.86C301.463 582.212 302.177 575.173 300.656 568.28C298.936 560.328 293.59 553.58 284.95 552.972ZM381.273 583.562C378.097 574.922 378.071 565.528 378.508 556.465C379.566 533.72 384.038 510.751 380.466 488.033C377.74 470.621 370.251 452.958 355.499 442.426C348.01 437.133 337.716 433.64 329.195 438.721C321.958 442.994 318.174 451.634 318.068 459.811C317.962 470.396 322.884 480.28 328.057 489.198C333.231 498.115 339.039 506.398 344.212 515.197C349.386 523.995 353.765 533.085 355.697 542.982C357.456 552.227 357.153 561.746 354.811 570.86C353.227 577.29 350.685 583.446 347.269 589.119H348.817C349.518 587.941 350.14 586.724 350.788 585.52C354.955 577.403 357.407 568.516 357.991 559.411C358.576 550.307 357.282 541.179 354.189 532.596C347.203 513.358 333.164 497.93 324.498 479.552C320.066 470.171 317.194 458.991 321.852 449.12C323.663 445.015 326.76 441.611 330.677 439.422C332.995 438.302 335.516 437.663 338.088 437.542C340.659 437.422 343.229 437.823 345.641 438.721C354.797 441.711 362.418 449.094 367.671 456.953C372.68 464.708 376.202 473.327 378.058 482.37C382.927 504.453 379.09 527.158 377.515 549.373C376.827 558.965 376.192 568.783 378.283 578.256C379.04 582.022 380.379 585.647 382.252 589H383.945C382.859 587.3 381.962 585.485 381.273 583.588V583.562ZM358.224 419.8C362.657 428.811 371.654 433.706 380.585 437.358C383.893 438.681 387.2 440.004 390.508 441.327C390.429 440.864 390.323 440.414 390.244 440.004C385.057 437.808 379.764 435.836 374.71 433.296C366.083 428.969 357.179 421.163 357.298 410.671C357.417 401.052 366.282 394.211 375.054 392.478C376.455 392.199 377.875 392.022 379.301 391.949C379.196 391.578 379.09 391.181 378.997 390.798C372.992 391.027 367.235 393.258 362.643 397.135C359.449 399.855 357.273 403.578 356.47 407.695C355.667 411.812 356.286 416.08 358.224 419.8Z" fill="white"/>
<path d="M282.066 342.425C220.21 389.924 155.708 470.528 154.743 517.076C153.79 563.04 179.604 558.463 183.957 557.113C229.922 542.797 285.321 415.302 305.816 363.383C326.099 311.821 297.361 330.689 282.066 342.425Z" fill="#F7A9A0"/>
<path d="M182.687 435.069L254.505 475.781C254.505 475.781 301.092 393.298 312.167 354.875C323.241 316.452 307.708 317.285 273.042 346.711C238.377 376.137 182.687 435.069 182.687 435.069Z" fill="#5F35F2"/>
<path d="M197.757 424.22C225.384 443.63 252.269 456.411 257.641 459.639C257.893 459.798 258.117 459.361 257.853 459.229C252.415 456.345 222.976 437.279 197.982 423.756C197.757 423.598 197.545 424.034 197.757 424.22Z" fill="#263238"/>
<path d="M249.888 472.976C251.365 473.538 252.81 474.183 254.214 474.908C261.121 461.187 259.864 464.323 266.89 450.669C270.347 443.974 273.792 437.279 277.223 430.584C280.796 423.624 283.998 416.36 287.94 409.599C287.961 409.557 287.998 409.525 288.043 409.51C288.088 409.495 288.136 409.499 288.179 409.52C288.221 409.541 288.253 409.578 288.268 409.622C288.282 409.667 288.279 409.716 288.258 409.758C285.969 416.373 282.873 422.751 279.936 429.115C280.584 428.123 281.259 427.117 281.907 426.164C283.495 424.034 285.043 421.904 286.459 419.655C286.67 419.311 287.252 419.589 287.027 419.933C285.704 422.089 284.5 424.299 283.323 426.548C282.145 428.797 280.835 430.941 279.499 433.164C278.163 435.387 276.787 437.226 275.358 439.21L274.842 439.938C272.963 443.907 271.137 447.877 269.165 451.846C262.259 465.646 255.14 476.496 254.902 476.43C253.094 475.559 251.355 474.551 249.702 473.413C249.491 473.228 249.689 472.963 249.888 472.976Z" fill="#263238"/>
<path d="M463.914 559.309C442.625 556.187 430.572 516.626 406.928 453.659C402.787 442.611 457.762 379.326 465.224 389.501C474.632 402.322 499.546 473.426 502.033 492.704C506.929 530.849 488.842 562.935 463.914 559.309Z" fill="#F7A9A0"/>
<path d="M431.167 517.38C426.312 507.086 421.906 496.58 417.725 486.022C413.755 475.437 409.257 464.852 406.928 453.659C410.262 464.508 414.867 474.948 418.955 485.532C422.594 494.874 427.82 508.025 431.167 517.38Z" fill="#263238"/>
<path d="M484.952 435.215C481.975 413.595 475.875 383.441 468.148 377.13C460.038 370.514 430.598 348.339 422.091 345.375C413.583 342.411 375.689 327.963 368.73 332.012C363.146 335.227 369.748 349.9 387.796 356.926C403.673 363.105 411.81 368.834 416.335 370.819C420.86 372.803 432.08 387.781 429.05 394.41C427.251 398.313 415.899 402.904 408.833 399.702C401.768 396.5 400.021 382.502 391.95 375.886C383.879 369.271 369.642 370.091 368.822 373.928C368.002 377.765 372.699 379.578 379.976 392.637C384.66 401.039 384.977 421.203 395.602 435.664C400.894 442.928 410.236 462.272 410.236 462.272L484.952 435.215Z" fill="#F7A9A0"/>
<path d="M384.422 369.959C381.812 369.578 379.363 368.468 377.357 366.757C376.554 365.971 375.998 364.969 375.756 363.872C375.663 363.276 375.663 362.669 375.756 362.073C375.777 361.43 376.025 360.816 376.457 360.34C376.589 360.247 376.378 360.062 376.311 360.207C376.118 360.51 375.901 360.798 375.663 361.067C375.495 361.324 375.357 361.599 375.253 361.888C375.033 362.448 374.93 363.046 374.949 363.647C374.995 364.971 375.489 366.24 376.351 367.246C378.362 369.641 381.471 370.276 384.462 370.17C384.49 370.165 384.515 370.149 384.531 370.125C384.547 370.102 384.553 370.073 384.548 370.045C384.542 370.017 384.526 369.992 384.503 369.976C384.479 369.96 384.45 369.953 384.422 369.959Z" fill="#263238"/>
<path d="M468.148 377.077C461.282 366.294 443.711 346.831 426.298 340.136C414.536 335.611 374.022 355.312 375.2 363.052C376.377 370.792 383.297 370.832 393.538 369.668C397.269 369.231 417.01 362.152 420.371 366.294C425.2 372.248 431.34 392.597 431.34 392.597L468.148 377.077Z" fill="#F7A9A0"/>
<path d="M376.205 360.035C381.22 351.752 392.215 347.333 403.157 343.853C403.329 343.853 403.422 344.052 403.263 344.105C400.471 345.005 382.636 353.195 376.324 360.167C376.258 360.247 376.152 360.114 376.205 360.035Z" fill="#263238"/>
<path d="M468.148 377.077C461.281 366.293 443.711 346.831 426.298 340.136C414.536 335.611 382.477 360.829 383.654 368.582C384.832 376.336 394.769 376.945 405.764 373.121C409.31 371.89 421.218 363.515 424.578 367.656C429.408 373.61 441.197 388.403 441.197 388.403L468.148 377.077Z" fill="#F7A9A0"/>
<path d="M434.396 379.247C433.298 377.54 432.927 376.945 431.75 375.278C430.572 373.61 429.461 371.93 428.217 370.342C427.234 368.871 426.008 367.578 424.591 366.519C423.12 365.681 421.416 365.342 419.736 365.553C415.925 365.91 412.472 368.318 409.243 370.17C405.631 372.248 398.156 375.595 392.413 374.986C390.84 374.894 389.304 374.474 387.902 373.756C386.832 373.275 385.899 372.533 385.189 371.599C382.702 367.379 385.811 362.562 388.987 359.162C394.914 352.811 402.879 348.207 410.593 344.423C412.498 343.496 414.417 342.623 416.335 341.776C418.484 340.631 420.852 339.954 423.282 339.792C427.251 339.792 433.787 343.761 435.812 345.084C435.97 345.177 436.076 344.925 435.931 344.833C433.483 343.311 427.423 338.336 420.993 338.654C418.651 339.005 416.389 339.767 414.311 340.903C412.075 341.869 409.852 342.914 407.695 343.999C403.426 346.084 399.329 348.504 395.443 351.237C391.778 353.883 387.888 356.886 385.414 360.697C383.271 363.991 382.622 368.636 384.7 372.155C386.459 375.079 390.204 375.78 391.924 376.005C393.606 376.23 395.31 376.23 396.991 376.005C400.736 375.192 404.419 374.118 408.013 372.79C411.493 371.401 414.628 369.059 418.227 367.974C419.073 367.682 419.969 367.561 420.862 367.62C421.755 367.68 422.627 367.917 423.427 368.318C424.887 369.303 426.193 370.498 427.304 371.864C429.697 374.226 431.867 376.804 433.787 379.564C434.33 380.2 434.859 379.961 434.396 379.247Z" fill="#263238"/>
<path d="M473.242 386.484C470.715 381.364 466.468 360.207 462.393 353.711C458.318 347.214 439.701 324.788 430.995 325.753C420.053 326.957 431.432 346.685 437.161 354.862C442.89 363.039 441.911 376.773 441.911 376.773L473.242 386.484Z" fill="#F7A9A0"/>
<path d="M429.183 341.34C431.185 343.969 433.053 346.698 434.78 349.516C436.609 352.077 438.245 354.771 439.675 357.574C440.873 360.44 441.588 363.485 441.792 366.585C441.938 368.106 441.99 369.628 441.99 371.149C441.99 372.671 441.858 374.497 441.898 376.164C441.898 376.336 441.62 376.362 441.62 376.164C441.42 373.117 441.027 370.085 440.442 367.087C439.897 363.98 438.978 360.95 437.704 358.064C435.15 352.321 431.406 347.214 428.812 341.512C428.706 341.273 429.037 341.154 429.183 341.34Z" fill="#263238"/>
<path d="M441.766 379.035C442.03 386.868 438.471 394.357 434.661 401.012C432.014 405.484 428.402 409.215 425.743 413.648C421.748 420.247 419.342 427.685 418.717 435.373C418.724 424.864 422.397 414.687 429.103 406.596C432.325 402.614 435.065 398.266 437.267 393.642C439.437 389.038 441.475 384.195 441.739 379.088L441.766 379.035Z" fill="#263238"/>
<path d="M363.675 348.829C363.37 352.198 362.893 355.55 362.246 358.871C361.745 361.883 360.965 364.841 359.918 367.709C357.88 372.869 353.977 377.633 348.01 379.022C342.267 380.345 336.366 378.546 331.815 375.555C326.827 372.274 322.95 367.617 319.391 363.092C317.181 360.3 315.091 357.416 313.159 354.439C312.18 352.943 311.188 351.448 310.275 349.9C309.362 348.352 308.502 346.764 307.575 345.243C307.496 345.124 307.231 345.243 307.311 345.349C309.229 348.855 315.064 359.982 317.009 362.748C320.555 367.762 324.432 372.896 329.592 376.601C334.523 380.363 340.727 382.053 346.885 381.311C349.838 380.849 352.625 379.64 354.98 377.8C357.335 375.959 359.18 373.547 360.341 370.792C361.703 367.503 362.568 364.029 362.908 360.485C363.398 356.608 363.662 352.692 363.821 348.789C363.755 348.789 363.675 348.789 363.675 348.829Z" fill="#263238"/>
<path d="M343.114 369.297C330.015 368.926 313.86 344.515 309.547 327.05C309.269 325.859 324.71 285.213 326.932 276.838C327.382 275.118 376.126 303.551 376.126 303.551C376.126 303.551 366.295 319.733 362.511 334.354C362.207 335.571 355.776 369.641 343.114 369.297Z" fill="#F7A9A0"/>
<path d="M376.113 303.538C376.113 303.538 366.295 319.72 362.498 334.34C362.498 334.631 362.022 336.762 361.267 339.831C336.896 330.9 325.067 311.358 319.642 298.114C322.963 288.852 326.033 280.238 326.919 276.851C327.422 275.118 376.113 303.538 376.113 303.538Z" fill="#263238"/>
<path d="M311.042 255.523C311.042 255.523 307.721 267.92 305.3 271.823C302.878 275.727 291.923 277.116 291.923 277.116C291.923 277.116 301.582 284.38 304.903 284.618C308.224 284.856 315.699 278.518 315.699 278.518C315.699 278.518 307.126 289.738 302.468 289.011C299.597 288.561 309.084 291.657 309.084 291.657C312.29 292.429 315.668 291.991 318.571 290.426C322.91 287.833 311.042 255.523 311.042 255.523Z" fill="#263238"/>
<path d="M329.129 218.515C318.372 235.544 313.49 291.895 323.453 307.481C337.888 330.08 368.836 340.334 389.9 321.334C410.328 302.93 415.37 229.378 403.567 214.453C386.182 192.489 345.033 193.363 329.129 218.515Z" fill="#F7A9A0"/>
<path d="M370.662 256.66C368.99 256.815 367.312 256.876 365.634 256.846C363.702 256.846 362.167 257.15 360.46 256.078C360.019 255.718 359.706 255.224 359.567 254.671C359.429 254.118 359.473 253.535 359.693 253.009C360.804 250.812 363.159 250.164 365.488 250.005C367.839 249.752 370.2 250.389 372.104 251.791C374.049 253.207 372.924 256.356 370.662 256.66Z" fill="#263238"/>
<path d="M367.843 268.833C367.843 268.688 367.526 268.965 367.499 269.124C367.049 272.908 365.885 277.182 362.273 277.91C362.167 277.91 362.154 278.121 362.273 278.121C366.533 278.174 368.015 272.472 367.843 268.833Z" fill="#263238"/>
<path d="M365.078 264.387C359.084 262.985 356.742 275.078 362.299 276.375C367.856 277.671 370.106 265.552 365.078 264.387Z" fill="#263238"/>
<path d="M389.516 272.472C389.516 272.339 389.767 272.71 389.741 272.855C388.894 276.586 388.55 280.992 391.699 282.884C391.805 282.951 391.699 283.136 391.633 283.096C387.61 281.733 388.113 275.872 389.516 272.472Z" fill="#263238"/>
<path d="M393.578 269.217C399.69 269.931 397.825 282.104 392.162 281.442C386.499 280.781 388.497 268.621 393.578 269.217Z" fill="#263238"/>
<path d="M399.505 263.011C397.929 262.374 396.392 261.645 394.901 260.828C393.154 259.981 391.686 259.505 390.667 257.719C390.442 257.193 390.395 256.608 390.531 256.052C390.666 255.496 390.979 254.999 391.421 254.636C393.432 253.207 395.827 253.723 397.957 254.636C400.146 255.511 401.93 257.172 402.959 259.293C403.169 259.787 403.231 260.331 403.139 260.86C403.047 261.389 402.803 261.879 402.438 262.272C402.073 262.666 401.601 262.945 401.081 263.076C400.56 263.207 400.013 263.185 399.505 263.011Z" fill="#263238"/>
<path d="M358.462 299.304C359.19 300.35 359.786 301.739 361.188 302.109C362.586 302.348 364.019 302.294 365.396 301.951C365.424 301.945 365.453 301.948 365.479 301.96C365.505 301.972 365.527 301.993 365.54 302.018C365.553 302.043 365.558 302.073 365.554 302.101C365.549 302.129 365.535 302.156 365.515 302.175C364.836 302.807 364 303.244 363.094 303.439C362.188 303.635 361.246 303.582 360.368 303.287C359.641 302.941 359.033 302.386 358.623 301.693C358.213 301 358.019 300.201 358.065 299.397C358.052 299.172 358.357 299.146 358.462 299.304Z" fill="#263238"/>
<path d="M364.575 288.852C365.235 290.519 366.234 292.031 367.51 293.29C368.785 294.55 370.309 295.53 371.984 296.169C373.44 296.754 374.973 297.124 376.536 297.267C376.829 297.319 377.125 297.346 377.422 297.346H378.269C378.476 297.348 378.677 297.282 378.842 297.157C379.007 297.033 379.127 296.857 379.182 296.658C379.195 296.526 379.195 296.393 379.182 296.261V295.931C379.817 293.059 380.386 288.627 380.386 288.627C381.339 289.355 386.248 292.808 386.459 291.273C388.126 278.651 389.979 264.626 388.986 251.712C388.971 251.631 388.927 251.558 388.863 251.505C388.799 251.452 388.719 251.423 388.636 251.423C388.553 251.423 388.473 251.452 388.409 251.505C388.345 251.558 388.301 251.631 388.285 251.712C386.195 263.766 386.248 276.124 384.316 288.27C382.728 287.291 380.161 285.531 378.653 285.28C378.216 285.28 377.7 293.88 377.33 295.137C377.336 295.181 377.336 295.225 377.33 295.269C372.355 294.951 368.994 292.782 364.919 288.653C364.747 288.349 364.469 288.508 364.575 288.852Z" fill="#263238"/>
<path d="M317.181 262.813C327.303 263.289 342.4 233.929 342.4 233.929L338.43 251.527C338.43 251.527 347.467 248.192 353.368 241.696C357.576 237.052 359.402 229.179 359.786 225.144C359.786 225.144 366.401 239.301 377.118 246.314C381.088 248.96 413.067 259.545 413.729 257.56C415.727 251.646 410.249 226.255 404.07 218.078C396.939 208.671 385.771 198.113 364.231 198.999C342.691 199.886 333.548 210.457 327.528 219.018C321.508 227.578 313.463 262.641 317.181 262.813Z" fill="#263238"/>
<path d="M328.745 268.33C328.745 268.33 321.111 247.743 312.074 250.005C303.037 252.268 305.578 279.907 313.953 285.795C314.976 286.623 316.157 287.235 317.423 287.595C318.688 287.956 320.014 288.057 321.32 287.892C322.626 287.728 323.885 287.302 325.022 286.639C326.16 285.976 327.151 285.091 327.938 284.036L328.745 268.33Z" fill="#F7A9A0"/>
<path d="M313.027 257.917C312.881 257.917 312.802 258.076 312.908 258.156C318.729 262.495 320.582 269.428 321.349 276.295C320.026 273.385 317.75 271.387 313.913 272.842C313.715 272.842 313.807 273.226 314.006 273.226C315.245 273.164 316.474 273.486 317.523 274.15C318.573 274.813 319.391 275.784 319.867 276.93C320.643 278.854 321.215 280.854 321.574 282.898C321.719 283.559 322.897 283.52 322.818 282.792C322.811 282.739 322.811 282.686 322.818 282.633C325.133 274.364 321.719 261.08 313.027 257.917Z" fill="#263238"/>
<path d="M389.741 204.093C384.269 198.917 378.069 194.571 371.336 191.193C363.768 187.554 338.179 181.164 330.518 184.167C322.857 187.171 313.45 210.153 312.14 213.54C310.83 216.927 305.445 238.216 311.293 245.745C317.142 253.273 329.645 218.224 345.443 210.457C361.241 202.691 389.741 204.093 389.741 204.093Z" fill="#5F35F2"/>
<path opacity="0.1" d="M389.741 204.106C389.741 204.106 361.228 202.783 345.443 210.471C329.658 218.158 317.155 253.273 311.28 245.745C308.713 242.437 308.197 238.613 308.634 232.633C313.649 222.842 323.188 208.221 335.467 200.005C346.978 192.304 362.59 191.682 377.992 194.95C382.158 197.668 386.088 200.731 389.741 204.106Z" fill="black"/>
<path d="M306.358 267.391C310.169 258.209 328.137 236.205 342.995 225.118C357.854 214.03 390.164 215.432 394.213 217.047C404.03 221.016 406.425 225.131 408.304 224.773C410.183 224.416 402.39 213.434 400.127 210.801C397.865 208.168 391.62 201.672 387.24 200.322C382.861 198.973 355.115 192.688 341.54 200.878C327.965 209.068 303.447 236.602 303.249 245.613C303.249 247.782 305.392 249.926 305.3 252.995C305.167 256.965 304.519 261.53 304.77 264.467C304.929 266.835 306.027 268.198 306.358 267.391Z" fill="#5F35F2"/>
<path d="M347.467 219.415C345.632 217.244 343.985 214.92 342.545 212.469C341.05 210.015 339.847 207.395 338.96 204.662C338.96 204.62 338.943 204.58 338.913 204.55C338.883 204.52 338.843 204.503 338.801 204.503C338.759 204.503 338.718 204.52 338.689 204.55C338.659 204.58 338.642 204.62 338.642 204.662C339.138 207.582 340.094 210.404 341.474 213.024C342.909 215.594 344.812 217.874 347.084 219.746C347.335 220.024 347.666 219.653 347.467 219.415Z" fill="#263238"/>
<path d="M309.401 257.917C309.313 257.153 309.185 256.393 309.018 255.642C308.888 254.766 308.853 253.879 308.912 252.995C309.25 251.373 309.405 249.717 309.375 248.06C309.126 246.734 308.736 245.439 308.211 244.197C307.505 242.828 307.299 241.256 307.628 239.751C307.642 239.711 307.64 239.666 307.621 239.628C307.603 239.59 307.57 239.56 307.529 239.546C307.489 239.532 307.445 239.535 307.406 239.553C307.368 239.572 307.338 239.605 307.324 239.645C306.358 242.503 307.602 245.176 308.052 247.981C308.343 249.78 307.721 251.5 307.708 253.273C307.567 254.943 307.981 256.613 308.885 258.023C309.031 258.314 309.415 258.235 309.401 257.917Z" fill="#263238"/>
<path d="M316.043 248.881C315.447 247.551 314.921 246.191 314.469 244.805C314.089 243.429 313.806 242.027 313.622 240.611C313.424 239.288 313.344 237.819 313.172 236.417C312.974 234.776 312.577 233.122 312.458 231.469C312.458 231.27 312.127 231.323 312.14 231.469C312.259 233.189 312.14 234.922 312.14 236.642C312.208 238.133 312.376 239.619 312.643 241.088C312.875 242.496 313.243 243.878 313.741 245.216C314.194 246.578 314.918 247.834 315.871 248.907C315.88 248.924 315.895 248.937 315.912 248.946C315.929 248.954 315.948 248.957 315.967 248.954C315.985 248.951 316.003 248.943 316.017 248.929C316.03 248.916 316.04 248.899 316.043 248.881Z" fill="#263238"/>
<path d="M322.527 240.823C321.106 238.494 320.032 235.971 319.338 233.334C318.676 230.688 318.174 228.121 317.684 225.514C317.684 225.342 317.353 225.342 317.366 225.514C317.314 228.282 317.603 231.046 318.227 233.744C318.539 235.053 319.01 236.32 319.629 237.515C320.375 238.772 321.263 239.94 322.275 240.995C322.368 241.14 322.632 240.995 322.527 240.823Z" fill="#263238"/>
<path d="M329.195 233.255C328.429 232.258 327.867 231.121 327.541 229.907C327.078 228.584 326.641 227.261 326.218 225.938C325.795 224.615 325.437 223.292 325.067 222.061C324.604 220.792 324.419 219.438 324.524 218.092C324.524 218.05 324.508 218.009 324.478 217.979C324.448 217.95 324.408 217.933 324.366 217.933C324.324 217.933 324.283 217.95 324.253 217.979C324.224 218.009 324.207 218.05 324.207 218.092C323.896 219.392 323.847 220.741 324.061 222.061C324.236 223.548 324.537 225.018 324.961 226.454C325.394 227.862 325.906 229.245 326.496 230.595C326.948 231.842 327.77 232.922 328.851 233.691C329.102 233.718 329.38 233.466 329.195 233.255Z" fill="#263238"/>
<path d="M335.612 222.987C335.017 221.836 334.448 220.685 333.945 219.507C333.442 218.33 333.019 217.099 332.622 215.895C332.225 214.691 331.722 213.342 331.365 212.058C331.365 212.016 331.348 211.976 331.319 211.946C331.289 211.916 331.248 211.899 331.206 211.899C331.164 211.899 331.124 211.916 331.094 211.946C331.064 211.976 331.047 212.016 331.047 212.058C331.136 213.395 331.335 214.723 331.643 216.028C331.992 217.319 332.434 218.584 332.966 219.812C333.445 221.039 334.007 222.232 334.646 223.384C335.22 224.577 336.015 225.65 336.988 226.546C337.027 226.573 337.073 226.588 337.12 226.589C337.167 226.59 337.214 226.577 337.253 226.551C337.293 226.526 337.324 226.489 337.343 226.446C337.362 226.402 337.367 226.355 337.359 226.308C336.878 225.151 336.293 224.039 335.612 222.987Z" fill="#263238"/>
<path d="M356.531 216.464C355.988 215.009 355.459 213.567 354.784 212.164C354.084 210.734 353.306 209.343 352.455 207.996C350.846 205.342 348.947 202.875 346.793 200.64C346.673 200.521 346.409 200.64 346.515 200.812C349.703 206.104 353.13 211.278 356.226 216.61C356.25 216.642 356.284 216.664 356.323 216.674C356.362 216.683 356.402 216.679 356.438 216.662C356.474 216.645 356.503 216.616 356.52 216.58C356.537 216.544 356.54 216.503 356.531 216.464Z" fill="#263238"/>
<path d="M364.84 210.285C364.268 208.845 363.536 207.473 362.657 206.197C360.722 203.566 358.503 201.157 356.041 199.012C355.882 198.88 355.644 199.012 355.79 199.224C357.682 201.659 359.627 204.067 361.386 206.607C362.267 207.854 363.08 209.148 363.821 210.484C364.549 211.807 364.972 213.302 365.634 214.678C365.644 214.7 365.661 214.719 365.682 214.732C365.703 214.746 365.728 214.753 365.753 214.753C365.778 214.753 365.802 214.746 365.823 214.732C365.844 214.719 365.861 214.7 365.872 214.678C365.819 213.16 365.468 211.668 364.84 210.285Z" fill="#263238"/>
<path d="M373.903 209.24C373.395 207.853 372.743 206.522 371.958 205.271C370.489 202.866 368.624 200.728 366.441 198.946C366.295 198.814 366.097 199.039 366.216 199.184C368.034 201.315 369.663 203.599 371.085 206.012C371.813 207.216 372.474 208.473 373.136 209.716C373.797 210.96 374.247 212.363 375.041 213.54C375.041 213.633 375.24 213.54 375.226 213.448C374.923 212.005 374.48 210.596 373.903 209.24Z" fill="#263238"/>
<path d="M381.127 206.435C380.413 205.297 379.632 204.212 378.838 203.114C378.114 202.007 377.221 201.021 376.192 200.19C376.033 200.071 375.875 200.283 375.967 200.428C377.383 202.598 378.759 204.821 380.122 207.044C381.238 209.148 382.125 211.366 382.768 213.659C382.768 213.765 382.966 213.659 382.98 213.659C383.103 211.12 382.457 208.602 381.127 206.435Z" fill="#263238"/>
<path d="M388.696 207.269C387.432 204.969 385.744 202.931 383.721 201.262C383.588 201.143 383.363 201.381 383.496 201.513C385.229 203.349 386.674 205.437 387.783 207.705C388.921 209.965 389.808 212.344 390.429 214.797C390.429 214.916 390.654 214.916 390.654 214.797C390.593 212.17 389.922 209.593 388.696 207.269Z" fill="#263238"/>
<path d="M396.542 214.572C396.473 214.019 396.367 213.471 396.224 212.932C395.924 211.802 395.507 210.707 394.98 209.663C393.855 207.574 392.526 205.602 391.011 203.776C390.892 203.604 390.627 203.776 390.76 203.987C392.189 205.798 393.393 207.775 394.345 209.875C394.82 210.903 395.218 211.964 395.536 213.051C395.695 213.58 395.814 214.122 395.92 214.665C395.98 215.204 396.095 215.736 396.264 216.253C396.273 216.285 396.294 216.314 396.321 216.335C396.348 216.355 396.382 216.366 396.416 216.366C396.45 216.366 396.483 216.355 396.511 216.335C396.538 216.314 396.558 216.285 396.568 216.253C396.66 215.695 396.651 215.126 396.542 214.572Z" fill="#263238"/>
<path d="M402.032 216.967C401.747 216.065 401.406 215.182 401.014 214.321C400.623 213.449 400.181 212.601 399.69 211.781C399.174 210.947 398.632 210.127 398.156 209.267C398.147 209.242 398.132 209.22 398.114 209.202C398.095 209.183 398.072 209.17 398.048 209.161C398.023 209.153 397.997 209.151 397.971 209.154C397.945 209.158 397.92 209.167 397.898 209.182C397.877 209.196 397.859 209.215 397.845 209.238C397.832 209.26 397.824 209.286 397.822 209.312C397.82 209.338 397.824 209.364 397.834 209.388C397.843 209.412 397.859 209.434 397.878 209.452C398.398 210.292 398.84 211.178 399.201 212.098C399.558 212.958 399.942 213.805 400.312 214.652C400.683 215.498 401.04 216.358 401.397 217.219C401.755 218.079 402.032 219.031 402.482 219.865C402.494 219.898 402.52 219.925 402.552 219.94C402.584 219.955 402.621 219.956 402.654 219.944C402.688 219.932 402.715 219.907 402.73 219.875C402.744 219.842 402.746 219.805 402.734 219.772C402.609 218.813 402.374 217.872 402.032 216.967Z" fill="#263238"/>
<path d="M373.731 378.929L341.844 472.394C340.601 475.04 341.844 477.501 344.57 477.687L393.816 481.735C395.33 481.751 396.818 481.334 398.102 480.532C399.387 479.73 400.416 478.578 401.067 477.21L432.954 383.759C434.198 381.033 432.954 378.652 430.228 378.466L380.982 374.418C379.469 374.401 377.983 374.816 376.698 375.616C375.414 376.415 374.384 377.565 373.731 378.929Z" fill="#37474F"/>
<path d="M379.606 379.366L347.732 472.817C346.475 475.53 347.732 477.925 350.444 478.11L399.691 482.159C401.203 482.176 402.69 481.76 403.974 480.961C405.259 480.161 406.288 479.012 406.941 477.647L438.828 384.182C440.072 381.456 438.828 379.075 436.103 378.89L386.856 374.841C385.342 374.825 383.855 375.243 382.57 376.044C381.285 376.846 380.257 377.999 379.606 379.366Z" fill="#455A64"/>
<path d="M392.757 384.83C392.669 385.654 392.339 386.434 391.809 387.071C391.278 387.707 390.571 388.172 389.776 388.407C388.981 388.642 388.135 388.637 387.343 388.391C386.552 388.145 385.851 387.671 385.329 387.027C384.807 386.383 384.487 385.599 384.411 384.774C384.334 383.949 384.503 383.12 384.897 382.391C385.291 381.662 385.893 381.066 386.625 380.678C387.358 380.29 388.188 380.129 389.013 380.213C390.121 380.329 391.138 380.881 391.84 381.747C392.542 382.613 392.872 383.722 392.757 384.83Z" fill="#263238"/>
<path d="M172.115 555.922C191.763 562.538 219.933 551.741 294.331 516.679C304.625 511.836 289.925 429.975 278.665 434.646C264.482 440.454 210.71 466.083 207.019 468.464C175.846 488.404 158.791 551.397 172.115 555.922Z" fill="#F7A9A0"/>
<path d="M250.933 453.156C250.933 453.156 274.524 430.663 290.626 422.724C312.127 412.033 335.083 411.663 344.715 412.139C364.813 413.026 412.816 429.062 410.606 443.696C408.608 456.927 360.328 438.059 360.328 438.059C360.328 438.059 412.67 449.186 407.338 464.693C402.006 480.2 347.269 455.061 347.269 455.061C347.269 455.061 400.802 467.697 392.771 482.846C386.698 494.265 335.877 474.339 335.877 474.339C335.877 474.339 381.762 485.493 376.02 497.401C369.682 510.632 321.587 495.218 321.587 495.218C301.86 523.307 280.968 528.613 265.672 530.624C261.968 531.167 250.933 453.156 250.933 453.156Z" fill="#F7A9A0"/>
<path d="M342.466 432.965C348.658 434.05 354.943 435.109 360.99 436.736C367.036 438.364 373.096 440.216 378.997 442.399C393.472 447.771 401.689 453.394 401.146 453.103C388.285 446.196 366.6 440.017 360.5 438.39C354.401 436.763 348.447 434.831 342.387 433.19C342.241 433.151 342.321 432.939 342.466 432.965Z" fill="#263238"/>
<path d="M336.181 454.81C344.027 456.53 351.886 457.959 359.666 460.036C367.446 462.113 374.565 464.733 382.159 467.327C382.741 467.525 382.437 467.776 381.855 467.591C374.168 465.315 366.904 463.794 359.203 461.584C351.503 459.375 343.882 456.9 336.128 454.969C335.996 454.955 336.062 454.783 336.181 454.81Z" fill="#263238"/>
<path d="M327.422 472.579C339.555 474.603 351.238 478.864 362.723 483.323C363.292 483.548 362.868 483.826 362.273 483.627C350.603 479.843 341.487 476.773 327.343 473.042C327.118 472.95 327.144 472.539 327.422 472.579Z" fill="#263238"/>
<path d="M227.659 458.157C222.076 461.174 216.492 464.191 211.041 467.419C205.59 470.647 200.125 473.849 195.958 478.613C189.699 485.737 184.291 493.565 179.842 501.939C178.303 504.713 176.92 507.571 175.701 510.5C180.189 497.652 187.334 485.894 196.672 475.993C205.656 468.054 216.876 463.106 227.659 458.131V458.157Z" fill="#263238"/>
<path d="M300.974 179.463V251.043H290.932V268.416L273.572 251.043H135.4V179.463H300.974Z" fill="white"/>
<path d="M301.209 179.49L301.011 215.372C300.923 227.307 300.865 239.215 300.839 251.096L301.209 250.726H290.77V251.11V268.482L291.498 268.178L274.165 250.779L274.032 250.633H273.834C233.148 250.633 175.778 250.408 135.675 250.501L136.283 251.11L136.164 179.529L135.675 180.019C176.942 180.019 259.968 179.714 301.236 179.529L301.209 179.49ZM301.209 179.49C259.955 179.318 176.837 179.026 135.648 179H135.119V179.49L135 251.07V251.679H135.622C175.513 251.811 233.281 251.56 273.781 251.546L273.437 251.401L290.836 268.734L291.577 269.461V268.429V251.057L291.18 251.454H301.222H301.593C301.699 230.496 301.249 200.726 301.222 179.503L301.209 179.49Z" fill="#263238"/>
<path d="M188.999 194.692H148.194V235.497H188.999V194.692Z" fill="#F22C1F"/>
<path d="M162.735 222.411V207.791L177.766 215.094L162.735 222.411Z" fill="white"/>
<path d="M275.98 194.692H201.701V198.079H275.98V194.692Z" fill="#A6A6A6"/>
<path d="M201.701 207.275C228.534 206.388 255.551 206.388 282.411 207.275C255.578 208.161 228.56 208.161 201.701 207.275Z" fill="#EBEBEB"/>
<path d="M201.701 216.299C229.962 215.412 258.436 215.412 286.711 216.299C258.436 217.185 229.976 217.185 201.701 216.299Z" fill="#EBEBEB"/>
<path d="M201.701 225.309C221.812 224.422 242.082 224.422 262.207 225.309C242.082 226.209 221.812 226.209 201.701 225.309Z" fill="#EBEBEB"/>
<path d="M201.701 234.319C221.812 233.433 242.082 233.433 262.207 234.319C242.082 235.219 221.812 235.219 201.701 234.319Z" fill="#EBEBEB"/>
<path d="M603.463 654.851C435.917 655.672 248.035 655.685 80.5422 654.851C248.048 654.031 435.957 654.044 603.463 654.851Z" fill="#263238"/>
</g>
</svg>
